<mxfile host="app.diagrams.net" modified="2023-12-06T02:32:53.236Z" agent="Mozilla/5.0 (Windows NT 10.0; Win64; x64) AppleWebKit/537.36 (KHTML, like Gecko) Chrome/119.0.0.0 Safari/537.36" version="22.1.5" etag="Bf9bHNtyWUZhfOVse4zj" type="github">
  <diagram name="第 1 页" id="kcQXQSUT1It2r0rhMfiR">
    <mxGraphModel>
      <root>
        <mxCell id="0" />
        <mxCell id="1" parent="0" />
      </root>
    </mxGraphModel>
  </diagram>
</mxfile>
